<?xml version="1.0" encoding="utf-8" standalone="no"?>
<!DOCTYPE svg PUBLIC "-//W3C//DTD SVG 1.1//EN"
  "http://www.w3.org/Graphics/SVG/1.1/DTD/svg11.dtd">
<svg xmlns:xlink="http://www.w3.org/1999/xlink" width="1040.4pt" height="744.553125pt" viewBox="0 0 1040.4 744.553125" xmlns="http://www.w3.org/2000/svg" version="1.1">
 <metadata>
  <rdf:RDF xmlns:dc="http://purl.org/dc/elements/1.1/" xmlns:cc="http://creativecommons.org/ns#" xmlns:rdf="http://www.w3.org/1999/02/22-rdf-syntax-ns#">
   <cc:Work>
    <dc:type rdf:resource="http://purl.org/dc/dcmitype/StillImage"/>
    <dc:date>2026-02-12T13:47:08.546072</dc:date>
    <dc:format>image/svg+xml</dc:format>
    <dc:creator>
     <cc:Agent>
      <dc:title>Matplotlib v3.10.8, https://matplotlib.org/</dc:title>
     </cc:Agent>
    </dc:creator>
   </cc:Work>
  </rdf:RDF>
 </metadata>
 <defs>
  <style type="text/css">*{stroke-linejoin: round; stroke-linecap: butt}</style>
 </defs>
 <g id="figure_1">
  <g id="patch_1">
   <path d="M 0 744.553125 
L 1040.4 744.553125 
L 1040.4 0 
L 0 0 
z
" style="fill: #ffffff"/>
  </g>
  <g id="axes_1">
   <g id="patch_2">
    <path d="M 113.643774 670.555058 
Q 293.970485 706.494167 471.984014 667.157817 
" clip-path="url(#pf455faa897)" style="fill: none; stroke: #3b4a5a; stroke-opacity: 0.75; stroke-width: 1.4; stroke-linecap: round"/>
    <path d="M 465.478041 665.523096 
L 471.984014 667.157817 
L 466.772654 671.381763 
z
" clip-path="url(#pf455faa897)" style="fill: #3b4a5a; fill-opacity: 0.75; stroke: #3b4a5a; stroke-opacity: 0.75; stroke-width: 1.4; stroke-linecap: round"/>
   </g>
   <g id="patch_3">
    <path d="M 467.209284 126.442224 
Q 697.587129 172.446699 925.269323 121.278288 
" clip-path="url(#pf455faa897)" style="fill: none; stroke: #3b4a5a; stroke-opacity: 0.75; stroke-width: 1.4; stroke-linecap: round"/>
    <path d="M 918.757532 119.666896 
L 925.269323 121.278288 
L 920.073135 125.520885 
z
" clip-path="url(#pf455faa897)" style="fill: #3b4a5a; fill-opacity: 0.75; stroke: #3b4a5a; stroke-opacity: 0.75; stroke-width: 1.4; stroke-linecap: round"/>
   </g>
   <g id="patch_4">
    <path d="M 825.504456 612.12731 
Q 749.749447 606.317367 678.963953 629.265332 
" clip-path="url(#pf455faa897)" style="fill: none; stroke: #3b4a5a; stroke-opacity: 0.75; stroke-width: 1.4; stroke-linecap: round"/>
    <path d="M 685.596682 630.268777 
L 678.963953 629.265332 
L 683.746347 624.561216 
z
" clip-path="url(#pf455faa897)" style="fill: #3b4a5a; fill-opacity: 0.75; stroke: #3b4a5a; stroke-opacity: 0.75; stroke-width: 1.4; stroke-linecap: round"/>
   </g>
   <g id="patch_5">
    <path d="M 680.645263 146.037259 
Q 806.328526 159.197709 925.492621 122.100207 
" clip-path="url(#pf455faa897)" style="fill: none; stroke: #3b4a5a; stroke-opacity: 0.75; stroke-width: 1.4; stroke-linecap: round"/>
    <path d="M 918.87208 121.019264 
L 925.492621 122.100207 
L 920.655541 126.748074 
z
" clip-path="url(#pf455faa897)" style="fill: #3b4a5a; fill-opacity: 0.75; stroke: #3b4a5a; stroke-opacity: 0.75; stroke-width: 1.4; stroke-linecap: round"/>
   </g>
   <g id="text_1">
    <g id="patch_6">
     <path d="M 268.184385 671.447608 
L 318.937353 671.447608 
L 318.937353 662.285889 
L 268.184385 662.285889 
z
" clip-path="url(#pf455faa897)" style="fill: #ffffff; opacity: 0.82"/>
    </g>
    <g clip-path="url(#pf455faa897)">
     <!-- KASBOX_ID -->
     <g transform="translate(268.364385 669.145577) scale(0.09 -0.09)">
      <defs>
       <path id="DejaVuSans-4b" d="M 628 4666 
L 1259 4666 
L 1259 2694 
L 3353 4666 
L 4166 4666 
L 1850 2491 
L 4331 0 
L 3500 0 
L 1259 2247 
L 1259 0 
L 628 0 
L 628 4666 
z
" transform="scale(0.015625)"/>
       <path id="DejaVuSans-41" d="M 2188 4044 
L 1331 1722 
L 3047 1722 
L 2188 4044 
z
M 1831 4666 
L 2547 4666 
L 4325 0 
L 3669 0 
L 3244 1197 
L 1141 1197 
L 716 0 
L 50 0 
L 1831 4666 
z
" transform="scale(0.015625)"/>
       <path id="DejaVuSans-53" d="M 3425 4513 
L 3425 3897 
Q 3066 4069 2747 4153 
Q 2428 4238 2131 4238 
Q 1616 4238 1336 4038 
Q 1056 3838 1056 3469 
Q 1056 3159 1242 3001 
Q 1428 2844 1947 2747 
L 2328 2669 
Q 3034 2534 3370 2195 
Q 3706 1856 3706 1288 
Q 3706 609 3251 259 
Q 2797 -91 1919 -91 
Q 1588 -91 1214 -16 
Q 841 59 441 206 
L 441 856 
Q 825 641 1194 531 
Q 1563 422 1919 422 
Q 2459 422 2753 634 
Q 3047 847 3047 1241 
Q 3047 1584 2836 1778 
Q 2625 1972 2144 2069 
L 1759 2144 
Q 1053 2284 737 2584 
Q 422 2884 422 3419 
Q 422 4038 858 4394 
Q 1294 4750 2059 4750 
Q 2388 4750 2728 4690 
Q 3069 4631 3425 4513 
z
" transform="scale(0.015625)"/>
       <path id="DejaVuSans-42" d="M 1259 2228 
L 1259 519 
L 2272 519 
Q 2781 519 3026 730 
Q 3272 941 3272 1375 
Q 3272 1813 3026 2020 
Q 2781 2228 2272 2228 
L 1259 2228 
z
M 1259 4147 
L 1259 2741 
L 2194 2741 
Q 2656 2741 2882 2914 
Q 3109 3088 3109 3444 
Q 3109 3797 2882 3972 
Q 2656 4147 2194 4147 
L 1259 4147 
z
M 628 4666 
L 2241 4666 
Q 2963 4666 3353 4366 
Q 3744 4066 3744 3513 
Q 3744 3084 3544 2831 
Q 3344 2578 2956 2516 
Q 3422 2416 3680 2098 
Q 3938 1781 3938 1306 
Q 3938 681 3513 340 
Q 3088 0 2303 0 
L 628 0 
L 628 4666 
z
" transform="scale(0.015625)"/>
       <path id="DejaVuSans-4f" d="M 2522 4238 
Q 1834 4238 1429 3725 
Q 1025 3213 1025 2328 
Q 1025 1447 1429 934 
Q 1834 422 2522 422 
Q 3209 422 3611 934 
Q 4013 1447 4013 2328 
Q 4013 3213 3611 3725 
Q 3209 4238 2522 4238 
z
M 2522 4750 
Q 3503 4750 4090 4092 
Q 4678 3434 4678 2328 
Q 4678 1225 4090 567 
Q 3503 -91 2522 -91 
Q 1538 -91 948 565 
Q 359 1222 359 2328 
Q 359 3434 948 4092 
Q 1538 4750 2522 4750 
z
" transform="scale(0.015625)"/>
       <path id="DejaVuSans-58" d="M 403 4666 
L 1081 4666 
L 2241 2931 
L 3406 4666 
L 4084 4666 
L 2584 2425 
L 4184 0 
L 3506 0 
L 2194 1984 
L 872 0 
L 191 0 
L 1856 2491 
L 403 4666 
z
" transform="scale(0.015625)"/>
       <path id="DejaVuSans-5f" d="M 3263 -1063 
L 3263 -1509 
L -63 -1509 
L -63 -1063 
L 3263 -1063 
z
" transform="scale(0.015625)"/>
       <path id="DejaVuSans-49" d="M 628 4666 
L 1259 4666 
L 1259 0 
L 628 0 
L 628 4666 
z
" transform="scale(0.015625)"/>
       <path id="DejaVuSans-44" d="M 1259 4147 
L 1259 519 
L 2022 519 
Q 2988 519 3436 956 
Q 3884 1394 3884 2338 
Q 3884 3275 3436 3711 
Q 2988 4147 2022 4147 
L 1259 4147 
z
M 628 4666 
L 1925 4666 
Q 3281 4666 3915 4102 
Q 4550 3538 4550 2338 
Q 4550 1131 3912 565 
Q 3275 0 1925 0 
L 628 0 
L 628 4666 
z
" transform="scale(0.015625)"/>
      </defs>
      <use xlink:href="#DejaVuSans-4b"/>
      <use xlink:href="#DejaVuSans-41" transform="translate(63.826172 0)"/>
      <use xlink:href="#DejaVuSans-53" transform="translate(132.234375 0)"/>
      <use xlink:href="#DejaVuSans-42" transform="translate(195.710938 0)"/>
      <use xlink:href="#DejaVuSans-4f" transform="translate(262.564453 0)"/>
      <use xlink:href="#DejaVuSans-58" transform="translate(334.900391 0)"/>
      <use xlink:href="#DejaVuSans-5f" transform="translate(403.40625 0)"/>
      <use xlink:href="#DejaVuSans-49" transform="translate(453.40625 0)"/>
      <use xlink:href="#DejaVuSans-44" transform="translate(482.898438 0)"/>
     </g>
    </g>
   </g>
   <g id="text_2">
    <g id="patch_7">
     <path d="M 677.955659 126.394168 
L 716.005972 126.394168 
L 716.005972 117.323855 
L 677.955659 117.323855 
z
" clip-path="url(#pf455faa897)" style="fill: #ffffff; opacity: 0.82"/>
    </g>
    <g clip-path="url(#pf455faa897)">
     <!-- SECIMID -->
     <g transform="translate(678.135659 124.342449) scale(0.09 -0.09)">
      <defs>
       <path id="DejaVuSans-45" d="M 628 4666 
L 3578 4666 
L 3578 4134 
L 1259 4134 
L 1259 2753 
L 3481 2753 
L 3481 2222 
L 1259 2222 
L 1259 531 
L 3634 531 
L 3634 0 
L 628 0 
L 628 4666 
z
" transform="scale(0.015625)"/>
       <path id="DejaVuSans-43" d="M 4122 4306 
L 4122 3641 
Q 3803 3938 3442 4084 
Q 3081 4231 2675 4231 
Q 1875 4231 1450 3742 
Q 1025 3253 1025 2328 
Q 1025 1406 1450 917 
Q 1875 428 2675 428 
Q 3081 428 3442 575 
Q 3803 722 4122 1019 
L 4122 359 
Q 3791 134 3420 21 
Q 3050 -91 2638 -91 
Q 1578 -91 968 557 
Q 359 1206 359 2328 
Q 359 3453 968 4101 
Q 1578 4750 2638 4750 
Q 3056 4750 3426 4639 
Q 3797 4528 4122 4306 
z
" transform="scale(0.015625)"/>
       <path id="DejaVuSans-4d" d="M 628 4666 
L 1569 4666 
L 2759 1491 
L 3956 4666 
L 4897 4666 
L 4897 0 
L 4281 0 
L 4281 4097 
L 3078 897 
L 2444 897 
L 1241 4097 
L 1241 0 
L 628 0 
L 628 4666 
z
" transform="scale(0.015625)"/>
      </defs>
      <use xlink:href="#DejaVuSans-53"/>
      <use xlink:href="#DejaVuSans-45" transform="translate(63.476562 0)"/>
      <use xlink:href="#DejaVuSans-43" transform="translate(126.660156 0)"/>
      <use xlink:href="#DejaVuSans-49" transform="translate(196.484375 0)"/>
      <use xlink:href="#DejaVuSans-4d" transform="translate(225.976562 0)"/>
      <use xlink:href="#DejaVuSans-49" transform="translate(312.255859 0)"/>
      <use xlink:href="#DejaVuSans-44" transform="translate(341.748047 0)"/>
     </g>
    </g>
   </g>
   <g id="text_3">
    <g id="patch_8">
     <path d="M 729.461835 627.230351 
L 773.935897 627.230351 
L 773.935897 618.160039 
L 729.461835 618.160039 
z
" clip-path="url(#pf455faa897)" style="fill: #ffffff; opacity: 0.82"/>
    </g>
    <g clip-path="url(#pf455faa897)">
     <!-- TAGNAME -->
     <g transform="translate(729.641835 625.178633) scale(0.09 -0.09)">
      <defs>
       <path id="DejaVuSans-54" d="M -19 4666 
L 3928 4666 
L 3928 4134 
L 2272 4134 
L 2272 0 
L 1638 0 
L 1638 4134 
L -19 4134 
L -19 4666 
z
" transform="scale(0.015625)"/>
       <path id="DejaVuSans-47" d="M 3809 666 
L 3809 1919 
L 2778 1919 
L 2778 2438 
L 4434 2438 
L 4434 434 
Q 4069 175 3628 42 
Q 3188 -91 2688 -91 
Q 1594 -91 976 548 
Q 359 1188 359 2328 
Q 359 3472 976 4111 
Q 1594 4750 2688 4750 
Q 3144 4750 3555 4637 
Q 3966 4525 4313 4306 
L 4313 3634 
Q 3963 3931 3569 4081 
Q 3175 4231 2741 4231 
Q 1884 4231 1454 3753 
Q 1025 3275 1025 2328 
Q 1025 1384 1454 906 
Q 1884 428 2741 428 
Q 3075 428 3337 486 
Q 3600 544 3809 666 
z
" transform="scale(0.015625)"/>
       <path id="DejaVuSans-4e" d="M 628 4666 
L 1478 4666 
L 3547 763 
L 3547 4666 
L 4159 4666 
L 4159 0 
L 3309 0 
L 1241 3903 
L 1241 0 
L 628 0 
L 628 4666 
z
" transform="scale(0.015625)"/>
      </defs>
      <use xlink:href="#DejaVuSans-54"/>
      <use xlink:href="#DejaVuSans-41" transform="translate(53.333984 0)"/>
      <use xlink:href="#DejaVuSans-47" transform="translate(119.992188 0)"/>
      <use xlink:href="#DejaVuSans-4e" transform="translate(197.482422 0)"/>
      <use xlink:href="#DejaVuSans-41" transform="translate(272.287109 0)"/>
      <use xlink:href="#DejaVuSans-4d" transform="translate(340.695312 0)"/>
      <use xlink:href="#DejaVuSans-45" transform="translate(426.974609 0)"/>
     </g>
    </g>
   </g>
   <g id="text_4">
    <g id="patch_9">
     <path d="M 784.611493 136.576019 
L 822.661805 136.576019 
L 822.661805 127.505706 
L 784.611493 127.505706 
z
" clip-path="url(#pf455faa897)" style="fill: #ffffff; opacity: 0.82"/>
    </g>
    <g clip-path="url(#pf455faa897)">
     <!-- SECIMID -->
     <g transform="translate(784.791493 134.5243) scale(0.09 -0.09)">
      <use xlink:href="#DejaVuSans-53"/>
      <use xlink:href="#DejaVuSans-45" transform="translate(63.476562 0)"/>
      <use xlink:href="#DejaVuSans-43" transform="translate(126.660156 0)"/>
      <use xlink:href="#DejaVuSans-49" transform="translate(196.484375 0)"/>
      <use xlink:href="#DejaVuSans-4d" transform="translate(225.976562 0)"/>
      <use xlink:href="#DejaVuSans-49" transform="translate(312.255859 0)"/>
      <use xlink:href="#DejaVuSans-44" transform="translate(341.748047 0)"/>
     </g>
    </g>
   </g>
   <g id="PathCollection_1">
    <defs>
     <path id="C0_0_31a13efd99" d="M 0 21.794495 
C 5.779968 21.794495 11.323981 19.498089 15.411035 15.411035 
C 19.498089 11.323981 21.794495 5.779968 21.794495 -0 
C 21.794495 -5.779968 19.498089 -11.323981 15.411035 -15.411035 
C 11.323981 -19.498089 5.779968 -21.794495 0 -21.794495 
C -5.779968 -21.794495 -11.323981 -19.498089 -15.411035 -15.411035 
C -19.498089 -11.323981 -21.794495 -5.779968 -21.794495 0 
C -21.794495 5.779968 -19.498089 11.323981 -15.411035 15.411035 
C -11.323981 19.498089 -5.779968 21.794495 0 21.794495 
z
"/>
    </defs>
    <g clip-path="url(#pf455faa897)">
     <use xlink:href="#C0_0_31a13efd99" x="105.158678" y="668.822216" style="fill: #b279a2; stroke: #1f2a35"/>
    </g>
    <g clip-path="url(#pf455faa897)">
     <use xlink:href="#C0_0_31a13efd99" x="481.960559" y="664.911307" style="fill: #b279a2; stroke: #1f2a35"/>
    </g>
    <g clip-path="url(#pf455faa897)">
     <use xlink:href="#C0_0_31a13efd99" x="458.720121" y="124.713991" style="fill: #72b7b2; stroke: #1f2a35"/>
    </g>
    <g clip-path="url(#pf455faa897)">
     <use xlink:href="#C0_0_31a13efd99" x="935.241322" y="119.004034" style="fill: #9d755d; stroke: #1f2a35"/>
    </g>
    <g clip-path="url(#pf455faa897)">
     <use xlink:href="#C0_0_31a13efd99" x="834.133622" y="612.882853" style="fill: #9d755d; stroke: #1f2a35"/>
    </g>
    <g clip-path="url(#pf455faa897)">
     <use xlink:href="#C0_0_31a13efd99" x="669.266939" y="632.5072" style="fill: #9d755d; stroke: #1f2a35"/>
    </g>
    <g clip-path="url(#pf455faa897)">
     <use xlink:href="#C0_0_31a13efd99" x="672.037486" y="145.077145" style="fill: #9d755d; stroke: #1f2a35"/>
    </g>
   </g>
   <g id="text_5">
    <g clip-path="url(#pf455faa897)">
     <!-- ALL_MSG_KAS_DETAY -->
     <g transform="translate(54.425709 671.227646) scale(0.095 -0.095)">
      <defs>
       <path id="DejaVuSans-4c" d="M 628 4666 
L 1259 4666 
L 1259 531 
L 3531 531 
L 3531 0 
L 628 0 
L 628 4666 
z
" transform="scale(0.015625)"/>
       <path id="DejaVuSans-59" d="M -13 4666 
L 666 4666 
L 1959 2747 
L 3244 4666 
L 3922 4666 
L 2272 2222 
L 2272 0 
L 1638 0 
L 1638 2222 
L -13 4666 
z
" transform="scale(0.015625)"/>
      </defs>
      <use xlink:href="#DejaVuSans-41"/>
      <use xlink:href="#DejaVuSans-4c" transform="translate(68.408203 0)"/>
      <use xlink:href="#DejaVuSans-4c" transform="translate(124.121094 0)"/>
      <use xlink:href="#DejaVuSans-5f" transform="translate(179.833984 0)"/>
      <use xlink:href="#DejaVuSans-4d" transform="translate(229.833984 0)"/>
      <use xlink:href="#DejaVuSans-53" transform="translate(316.113281 0)"/>
      <use xlink:href="#DejaVuSans-47" transform="translate(379.589844 0)"/>
      <use xlink:href="#DejaVuSans-5f" transform="translate(457.080078 0)"/>
      <use xlink:href="#DejaVuSans-4b" transform="translate(507.080078 0)"/>
      <use xlink:href="#DejaVuSans-41" transform="translate(570.90625 0)"/>
      <use xlink:href="#DejaVuSans-53" transform="translate(639.314453 0)"/>
      <use xlink:href="#DejaVuSans-5f" transform="translate(702.791016 0)"/>
      <use xlink:href="#DejaVuSans-44" transform="translate(752.791016 0)"/>
      <use xlink:href="#DejaVuSans-45" transform="translate(829.792969 0)"/>
      <use xlink:href="#DejaVuSans-54" transform="translate(892.976562 0)"/>
      <use xlink:href="#DejaVuSans-41" transform="translate(946.310547 0)"/>
      <use xlink:href="#DejaVuSans-59" transform="translate(1006.96875 0)"/>
     </g>
    </g>
   </g>
   <g id="text_6">
    <g clip-path="url(#pf455faa897)">
     <!-- ALL_MSG_KAS -->
     <g transform="translate(448.576965 667.316737) scale(0.095 -0.095)">
      <use xlink:href="#DejaVuSans-41"/>
      <use xlink:href="#DejaVuSans-4c" transform="translate(68.408203 0)"/>
      <use xlink:href="#DejaVuSans-4c" transform="translate(124.121094 0)"/>
      <use xlink:href="#DejaVuSans-5f" transform="translate(179.833984 0)"/>
      <use xlink:href="#DejaVuSans-4d" transform="translate(229.833984 0)"/>
      <use xlink:href="#DejaVuSans-53" transform="translate(316.113281 0)"/>
      <use xlink:href="#DejaVuSans-47" transform="translate(379.589844 0)"/>
      <use xlink:href="#DejaVuSans-5f" transform="translate(457.080078 0)"/>
      <use xlink:href="#DejaVuSans-4b" transform="translate(507.080078 0)"/>
      <use xlink:href="#DejaVuSans-41" transform="translate(570.90625 0)"/>
      <use xlink:href="#DejaVuSans-53" transform="translate(639.314453 0)"/>
     </g>
    </g>
   </g>
   <g id="text_7">
    <g clip-path="url(#pf455faa897)">
     <!-- KBARSIV_MESAJLARDETAY -->
     <g transform="translate(396.622777 127.119421) scale(0.095 -0.095)">
      <defs>
       <path id="DejaVuSans-52" d="M 2841 2188 
Q 3044 2119 3236 1894 
Q 3428 1669 3622 1275 
L 4263 0 
L 3584 0 
L 2988 1197 
Q 2756 1666 2539 1819 
Q 2322 1972 1947 1972 
L 1259 1972 
L 1259 0 
L 628 0 
L 628 4666 
L 2053 4666 
Q 2853 4666 3247 4331 
Q 3641 3997 3641 3322 
Q 3641 2881 3436 2590 
Q 3231 2300 2841 2188 
z
M 1259 4147 
L 1259 2491 
L 2053 2491 
Q 2509 2491 2742 2702 
Q 2975 2913 2975 3322 
Q 2975 3731 2742 3939 
Q 2509 4147 2053 4147 
L 1259 4147 
z
" transform="scale(0.015625)"/>
       <path id="DejaVuSans-56" d="M 1831 0 
L 50 4666 
L 709 4666 
L 2188 738 
L 3669 4666 
L 4325 4666 
L 2547 0 
L 1831 0 
z
" transform="scale(0.015625)"/>
       <path id="DejaVuSans-4a" d="M 628 4666 
L 1259 4666 
L 1259 325 
Q 1259 -519 939 -900 
Q 619 -1281 -91 -1281 
L -331 -1281 
L -331 -750 
L -134 -750 
Q 284 -750 456 -515 
Q 628 -281 628 325 
L 628 4666 
z
" transform="scale(0.015625)"/>
      </defs>
      <use xlink:href="#DejaVuSans-4b"/>
      <use xlink:href="#DejaVuSans-42" transform="translate(65.576172 0)"/>
      <use xlink:href="#DejaVuSans-41" transform="translate(134.179688 0)"/>
      <use xlink:href="#DejaVuSans-52" transform="translate(202.587891 0)"/>
      <use xlink:href="#DejaVuSans-53" transform="translate(272.070312 0)"/>
      <use xlink:href="#DejaVuSans-49" transform="translate(335.546875 0)"/>
      <use xlink:href="#DejaVuSans-56" transform="translate(365.039062 0)"/>
      <use xlink:href="#DejaVuSans-5f" transform="translate(433.447266 0)"/>
      <use xlink:href="#DejaVuSans-4d" transform="translate(483.447266 0)"/>
      <use xlink:href="#DejaVuSans-45" transform="translate(569.726562 0)"/>
      <use xlink:href="#DejaVuSans-53" transform="translate(632.910156 0)"/>
      <use xlink:href="#DejaVuSans-41" transform="translate(698.261719 0)"/>
      <use xlink:href="#DejaVuSans-4a" transform="translate(766.669922 0)"/>
      <use xlink:href="#DejaVuSans-4c" transform="translate(796.162109 0)"/>
      <use xlink:href="#DejaVuSans-41" transform="translate(854.125 0)"/>
      <use xlink:href="#DejaVuSans-52" transform="translate(922.533203 0)"/>
      <use xlink:href="#DejaVuSans-44" transform="translate(992.015625 0)"/>
      <use xlink:href="#DejaVuSans-45" transform="translate(1069.017578 0)"/>
      <use xlink:href="#DejaVuSans-54" transform="translate(1132.201172 0)"/>
      <use xlink:href="#DejaVuSans-41" transform="translate(1185.535156 0)"/>
      <use xlink:href="#DejaVuSans-59" transform="translate(1246.193359 0)"/>
     </g>
    </g>
   </g>
   <g id="text_8">
    <g clip-path="url(#pf455faa897)">
     <!-- KBMESAJLARSECIM -->
     <g transform="translate(889.875854 121.62544) scale(0.095 -0.095)">
      <use xlink:href="#DejaVuSans-4b"/>
      <use xlink:href="#DejaVuSans-42" transform="translate(65.576172 0)"/>
      <use xlink:href="#DejaVuSans-4d" transform="translate(134.179688 0)"/>
      <use xlink:href="#DejaVuSans-45" transform="translate(220.458984 0)"/>
      <use xlink:href="#DejaVuSans-53" transform="translate(283.642578 0)"/>
      <use xlink:href="#DejaVuSans-41" transform="translate(348.994141 0)"/>
      <use xlink:href="#DejaVuSans-4a" transform="translate(417.402344 0)"/>
      <use xlink:href="#DejaVuSans-4c" transform="translate(446.894531 0)"/>
      <use xlink:href="#DejaVuSans-41" transform="translate(504.857422 0)"/>
      <use xlink:href="#DejaVuSans-52" transform="translate(573.265625 0)"/>
      <use xlink:href="#DejaVuSans-53" transform="translate(642.748047 0)"/>
      <use xlink:href="#DejaVuSans-45" transform="translate(706.224609 0)"/>
      <use xlink:href="#DejaVuSans-43" transform="translate(769.408203 0)"/>
      <use xlink:href="#DejaVuSans-49" transform="translate(839.232422 0)"/>
      <use xlink:href="#DejaVuSans-4d" transform="translate(868.724609 0)"/>
     </g>
    </g>
   </g>
   <g id="text_9">
    <g clip-path="url(#pf455faa897)">
     <!-- KBETIKETLER -->
     <g transform="translate(802.489715 615.50426) scale(0.095 -0.095)">
      <use xlink:href="#DejaVuSans-4b"/>
      <use xlink:href="#DejaVuSans-42" transform="translate(65.576172 0)"/>
      <use xlink:href="#DejaVuSans-45" transform="translate(134.179688 0)"/>
      <use xlink:href="#DejaVuSans-54" transform="translate(197.363281 0)"/>
      <use xlink:href="#DejaVuSans-49" transform="translate(258.447266 0)"/>
      <use xlink:href="#DejaVuSans-4b" transform="translate(287.939453 0)"/>
      <use xlink:href="#DejaVuSans-45" transform="translate(353.515625 0)"/>
      <use xlink:href="#DejaVuSans-54" transform="translate(416.699219 0)"/>
      <use xlink:href="#DejaVuSans-4c" transform="translate(477.783203 0)"/>
      <use xlink:href="#DejaVuSans-45" transform="translate(533.496094 0)"/>
      <use xlink:href="#DejaVuSans-52" transform="translate(596.679688 0)"/>
     </g>
    </g>
   </g>
   <g id="text_10">
    <g clip-path="url(#pf455faa897)">
     <!-- KBETIKETBASLIK -->
     <g transform="translate(629.884985 635.128606) scale(0.095 -0.095)">
      <use xlink:href="#DejaVuSans-4b"/>
      <use xlink:href="#DejaVuSans-42" transform="translate(65.576172 0)"/>
      <use xlink:href="#DejaVuSans-45" transform="translate(134.179688 0)"/>
      <use xlink:href="#DejaVuSans-54" transform="translate(197.363281 0)"/>
      <use xlink:href="#DejaVuSans-49" transform="translate(258.447266 0)"/>
      <use xlink:href="#DejaVuSans-4b" transform="translate(287.939453 0)"/>
      <use xlink:href="#DejaVuSans-45" transform="translate(353.515625 0)"/>
      <use xlink:href="#DejaVuSans-54" transform="translate(416.699219 0)"/>
      <use xlink:href="#DejaVuSans-42" transform="translate(477.783203 0)"/>
      <use xlink:href="#DejaVuSans-41" transform="translate(546.386719 0)"/>
      <use xlink:href="#DejaVuSans-53" transform="translate(614.794922 0)"/>
      <use xlink:href="#DejaVuSans-4c" transform="translate(678.271484 0)"/>
      <use xlink:href="#DejaVuSans-49" transform="translate(733.984375 0)"/>
      <use xlink:href="#DejaVuSans-4b" transform="translate(763.476562 0)"/>
     </g>
    </g>
   </g>
   <g id="text_11">
    <g clip-path="url(#pf455faa897)">
     <!-- KBMESAJLARDETAY -->
     <g transform="translate(626.531001 147.698551) scale(0.095 -0.095)">
      <use xlink:href="#DejaVuSans-4b"/>
      <use xlink:href="#DejaVuSans-42" transform="translate(65.576172 0)"/>
      <use xlink:href="#DejaVuSans-4d" transform="translate(134.179688 0)"/>
      <use xlink:href="#DejaVuSans-45" transform="translate(220.458984 0)"/>
      <use xlink:href="#DejaVuSans-53" transform="translate(283.642578 0)"/>
      <use xlink:href="#DejaVuSans-41" transform="translate(348.994141 0)"/>
      <use xlink:href="#DejaVuSans-4a" transform="translate(417.402344 0)"/>
      <use xlink:href="#DejaVuSans-4c" transform="translate(446.894531 0)"/>
      <use xlink:href="#DejaVuSans-41" transform="translate(504.857422 0)"/>
      <use xlink:href="#DejaVuSans-52" transform="translate(573.265625 0)"/>
      <use xlink:href="#DejaVuSans-44" transform="translate(642.748047 0)"/>
      <use xlink:href="#DejaVuSans-45" transform="translate(719.75 0)"/>
      <use xlink:href="#DejaVuSans-54" transform="translate(782.933594 0)"/>
      <use xlink:href="#DejaVuSans-41" transform="translate(836.267578 0)"/>
      <use xlink:href="#DejaVuSans-59" transform="translate(896.925781 0)"/>
     </g>
    </g>
   </g>
   <g id="text_12">
    <!-- Kasbox ER - Diger Iliskiler -->
    <g transform="translate(424.351172 29.397656) scale(0.15 -0.15)">
     <defs>
      <path id="DejaVuSans-61" d="M 2194 1759 
Q 1497 1759 1228 1600 
Q 959 1441 959 1056 
Q 959 750 1161 570 
Q 1363 391 1709 391 
Q 2188 391 2477 730 
Q 2766 1069 2766 1631 
L 2766 1759 
L 2194 1759 
z
M 3341 1997 
L 3341 0 
L 2766 0 
L 2766 531 
Q 2569 213 2275 61 
Q 1981 -91 1556 -91 
Q 1019 -91 701 211 
Q 384 513 384 1019 
Q 384 1609 779 1909 
Q 1175 2209 1959 2209 
L 2766 2209 
L 2766 2266 
Q 2766 2663 2505 2880 
Q 2244 3097 1772 3097 
Q 1472 3097 1187 3025 
Q 903 2953 641 2809 
L 641 3341 
Q 956 3463 1253 3523 
Q 1550 3584 1831 3584 
Q 2591 3584 2966 3190 
Q 3341 2797 3341 1997 
z
" transform="scale(0.015625)"/>
      <path id="DejaVuSans-73" d="M 2834 3397 
L 2834 2853 
Q 2591 2978 2328 3040 
Q 2066 3103 1784 3103 
Q 1356 3103 1142 2972 
Q 928 2841 928 2578 
Q 928 2378 1081 2264 
Q 1234 2150 1697 2047 
L 1894 2003 
Q 2506 1872 2764 1633 
Q 3022 1394 3022 966 
Q 3022 478 2636 193 
Q 2250 -91 1575 -91 
Q 1294 -91 989 -36 
Q 684 19 347 128 
L 347 722 
Q 666 556 975 473 
Q 1284 391 1588 391 
Q 1994 391 2212 530 
Q 2431 669 2431 922 
Q 2431 1156 2273 1281 
Q 2116 1406 1581 1522 
L 1381 1569 
Q 847 1681 609 1914 
Q 372 2147 372 2553 
Q 372 3047 722 3315 
Q 1072 3584 1716 3584 
Q 2034 3584 2315 3537 
Q 2597 3491 2834 3397 
z
" transform="scale(0.015625)"/>
      <path id="DejaVuSans-62" d="M 3116 1747 
Q 3116 2381 2855 2742 
Q 2594 3103 2138 3103 
Q 1681 3103 1420 2742 
Q 1159 2381 1159 1747 
Q 1159 1113 1420 752 
Q 1681 391 2138 391 
Q 2594 391 2855 752 
Q 3116 1113 3116 1747 
z
M 1159 2969 
Q 1341 3281 1617 3432 
Q 1894 3584 2278 3584 
Q 2916 3584 3314 3078 
Q 3713 2572 3713 1747 
Q 3713 922 3314 415 
Q 2916 -91 2278 -91 
Q 1894 -91 1617 61 
Q 1341 213 1159 525 
L 1159 0 
L 581 0 
L 581 4863 
L 1159 4863 
L 1159 2969 
z
" transform="scale(0.015625)"/>
      <path id="DejaVuSans-6f" d="M 1959 3097 
Q 1497 3097 1228 2736 
Q 959 2375 959 1747 
Q 959 1119 1226 758 
Q 1494 397 1959 397 
Q 2419 397 2687 759 
Q 2956 1122 2956 1747 
Q 2956 2369 2687 2733 
Q 2419 3097 1959 3097 
z
M 1959 3584 
Q 2709 3584 3137 3096 
Q 3566 2609 3566 1747 
Q 3566 888 3137 398 
Q 2709 -91 1959 -91 
Q 1206 -91 779 398 
Q 353 888 353 1747 
Q 353 2609 779 3096 
Q 1206 3584 1959 3584 
z
" transform="scale(0.015625)"/>
      <path id="DejaVuSans-78" d="M 3513 3500 
L 2247 1797 
L 3578 0 
L 2900 0 
L 1881 1375 
L 863 0 
L 184 0 
L 1544 1831 
L 300 3500 
L 978 3500 
L 1906 2253 
L 2834 3500 
L 3513 3500 
z
" transform="scale(0.015625)"/>
      <path id="DejaVuSans-20" transform="scale(0.015625)"/>
      <path id="DejaVuSans-2d" d="M 313 2009 
L 1997 2009 
L 1997 1497 
L 313 1497 
L 313 2009 
z
" transform="scale(0.015625)"/>
      <path id="DejaVuSans-69" d="M 603 3500 
L 1178 3500 
L 1178 0 
L 603 0 
L 603 3500 
z
M 603 4863 
L 1178 4863 
L 1178 4134 
L 603 4134 
L 603 4863 
z
" transform="scale(0.015625)"/>
      <path id="DejaVuSans-67" d="M 2906 1791 
Q 2906 2416 2648 2759 
Q 2391 3103 1925 3103 
Q 1463 3103 1205 2759 
Q 947 2416 947 1791 
Q 947 1169 1205 825 
Q 1463 481 1925 481 
Q 2391 481 2648 825 
Q 2906 1169 2906 1791 
z
M 3481 434 
Q 3481 -459 3084 -895 
Q 2688 -1331 1869 -1331 
Q 1566 -1331 1297 -1286 
Q 1028 -1241 775 -1147 
L 775 -588 
Q 1028 -725 1275 -790 
Q 1522 -856 1778 -856 
Q 2344 -856 2625 -561 
Q 2906 -266 2906 331 
L 2906 616 
Q 2728 306 2450 153 
Q 2172 0 1784 0 
Q 1141 0 747 490 
Q 353 981 353 1791 
Q 353 2603 747 3093 
Q 1141 3584 1784 3584 
Q 2172 3584 2450 3431 
Q 2728 3278 2906 2969 
L 2906 3500 
L 3481 3500 
L 3481 434 
z
" transform="scale(0.015625)"/>
      <path id="DejaVuSans-65" d="M 3597 1894 
L 3597 1613 
L 953 1613 
Q 991 1019 1311 708 
Q 1631 397 2203 397 
Q 2534 397 2845 478 
Q 3156 559 3463 722 
L 3463 178 
Q 3153 47 2828 -22 
Q 2503 -91 2169 -91 
Q 1331 -91 842 396 
Q 353 884 353 1716 
Q 353 2575 817 3079 
Q 1281 3584 2069 3584 
Q 2775 3584 3186 3129 
Q 3597 2675 3597 1894 
z
M 3022 2063 
Q 3016 2534 2758 2815 
Q 2500 3097 2075 3097 
Q 1594 3097 1305 2825 
Q 1016 2553 972 2059 
L 3022 2063 
z
" transform="scale(0.015625)"/>
      <path id="DejaVuSans-72" d="M 2631 2963 
Q 2534 3019 2420 3045 
Q 2306 3072 2169 3072 
Q 1681 3072 1420 2755 
Q 1159 2438 1159 1844 
L 1159 0 
L 581 0 
L 581 3500 
L 1159 3500 
L 1159 2956 
Q 1341 3275 1631 3429 
Q 1922 3584 2338 3584 
Q 2397 3584 2469 3576 
Q 2541 3569 2628 3553 
L 2631 2963 
z
" transform="scale(0.015625)"/>
      <path id="DejaVuSans-6c" d="M 603 4863 
L 1178 4863 
L 1178 0 
L 603 0 
L 603 4863 
z
" transform="scale(0.015625)"/>
      <path id="DejaVuSans-6b" d="M 581 4863 
L 1159 4863 
L 1159 1991 
L 2875 3500 
L 3609 3500 
L 1753 1863 
L 3688 0 
L 2938 0 
L 1159 1709 
L 1159 0 
L 581 0 
L 581 4863 
z
" transform="scale(0.015625)"/>
     </defs>
     <use xlink:href="#DejaVuSans-4b"/>
     <use xlink:href="#DejaVuSans-61" transform="translate(63.826172 0)"/>
     <use xlink:href="#DejaVuSans-73" transform="translate(125.105469 0)"/>
     <use xlink:href="#DejaVuSans-62" transform="translate(177.205078 0)"/>
     <use xlink:href="#DejaVuSans-6f" transform="translate(240.681641 0)"/>
     <use xlink:href="#DejaVuSans-78" transform="translate(298.738281 0)"/>
     <use xlink:href="#DejaVuSans-20" transform="translate(357.917969 0)"/>
     <use xlink:href="#DejaVuSans-45" transform="translate(389.705078 0)"/>
     <use xlink:href="#DejaVuSans-52" transform="translate(452.888672 0)"/>
     <use xlink:href="#DejaVuSans-20" transform="translate(522.371094 0)"/>
     <use xlink:href="#DejaVuSans-2d" transform="translate(554.158203 0)"/>
     <use xlink:href="#DejaVuSans-20" transform="translate(590.242188 0)"/>
     <use xlink:href="#DejaVuSans-44" transform="translate(622.029297 0)"/>
     <use xlink:href="#DejaVuSans-69" transform="translate(699.03125 0)"/>
     <use xlink:href="#DejaVuSans-67" transform="translate(726.814453 0)"/>
     <use xlink:href="#DejaVuSans-65" transform="translate(790.291016 0)"/>
     <use xlink:href="#DejaVuSans-72" transform="translate(851.814453 0)"/>
     <use xlink:href="#DejaVuSans-20" transform="translate(892.927734 0)"/>
     <use xlink:href="#DejaVuSans-49" transform="translate(924.714844 0)"/>
     <use xlink:href="#DejaVuSans-6c" transform="translate(954.207031 0)"/>
     <use xlink:href="#DejaVuSans-69" transform="translate(981.990234 0)"/>
     <use xlink:href="#DejaVuSans-73" transform="translate(1009.773438 0)"/>
     <use xlink:href="#DejaVuSans-6b" transform="translate(1061.873047 0)"/>
     <use xlink:href="#DejaVuSans-69" transform="translate(1119.783203 0)"/>
     <use xlink:href="#DejaVuSans-6c" transform="translate(1147.566406 0)"/>
     <use xlink:href="#DejaVuSans-65" transform="translate(1175.349609 0)"/>
     <use xlink:href="#DejaVuSans-72" transform="translate(1236.873047 0)"/>
    </g>
    <!-- Toplam node: 7 | Toplam iliski: 4 -->
    <g transform="translate(400.189453 46.273125) scale(0.15 -0.15)">
     <defs>
      <path id="DejaVuSans-70" d="M 1159 525 
L 1159 -1331 
L 581 -1331 
L 581 3500 
L 1159 3500 
L 1159 2969 
Q 1341 3281 1617 3432 
Q 1894 3584 2278 3584 
Q 2916 3584 3314 3078 
Q 3713 2572 3713 1747 
Q 3713 922 3314 415 
Q 2916 -91 2278 -91 
Q 1894 -91 1617 61 
Q 1341 213 1159 525 
z
M 3116 1747 
Q 3116 2381 2855 2742 
Q 2594 3103 2138 3103 
Q 1681 3103 1420 2742 
Q 1159 2381 1159 1747 
Q 1159 1113 1420 752 
Q 1681 391 2138 391 
Q 2594 391 2855 752 
Q 3116 1113 3116 1747 
z
" transform="scale(0.015625)"/>
      <path id="DejaVuSans-6d" d="M 3328 2828 
Q 3544 3216 3844 3400 
Q 4144 3584 4550 3584 
Q 5097 3584 5394 3201 
Q 5691 2819 5691 2113 
L 5691 0 
L 5113 0 
L 5113 2094 
Q 5113 2597 4934 2840 
Q 4756 3084 4391 3084 
Q 3944 3084 3684 2787 
Q 3425 2491 3425 1978 
L 3425 0 
L 2847 0 
L 2847 2094 
Q 2847 2600 2669 2842 
Q 2491 3084 2119 3084 
Q 1678 3084 1418 2786 
Q 1159 2488 1159 1978 
L 1159 0 
L 581 0 
L 581 3500 
L 1159 3500 
L 1159 2956 
Q 1356 3278 1631 3431 
Q 1906 3584 2284 3584 
Q 2666 3584 2933 3390 
Q 3200 3197 3328 2828 
z
" transform="scale(0.015625)"/>
      <path id="DejaVuSans-6e" d="M 3513 2113 
L 3513 0 
L 2938 0 
L 2938 2094 
Q 2938 2591 2744 2837 
Q 2550 3084 2163 3084 
Q 1697 3084 1428 2787 
Q 1159 2491 1159 1978 
L 1159 0 
L 581 0 
L 581 3500 
L 1159 3500 
L 1159 2956 
Q 1366 3272 1645 3428 
Q 1925 3584 2291 3584 
Q 2894 3584 3203 3211 
Q 3513 2838 3513 2113 
z
" transform="scale(0.015625)"/>
      <path id="DejaVuSans-64" d="M 2906 2969 
L 2906 4863 
L 3481 4863 
L 3481 0 
L 2906 0 
L 2906 525 
Q 2725 213 2448 61 
Q 2172 -91 1784 -91 
Q 1150 -91 751 415 
Q 353 922 353 1747 
Q 353 2572 751 3078 
Q 1150 3584 1784 3584 
Q 2172 3584 2448 3432 
Q 2725 3281 2906 2969 
z
M 947 1747 
Q 947 1113 1208 752 
Q 1469 391 1925 391 
Q 2381 391 2643 752 
Q 2906 1113 2906 1747 
Q 2906 2381 2643 2742 
Q 2381 3103 1925 3103 
Q 1469 3103 1208 2742 
Q 947 2381 947 1747 
z
" transform="scale(0.015625)"/>
      <path id="DejaVuSans-3a" d="M 750 794 
L 1409 794 
L 1409 0 
L 750 0 
L 750 794 
z
M 750 3309 
L 1409 3309 
L 1409 2516 
L 750 2516 
L 750 3309 
z
" transform="scale(0.015625)"/>
      <path id="DejaVuSans-37" d="M 525 4666 
L 3525 4666 
L 3525 4397 
L 1831 0 
L 1172 0 
L 2766 4134 
L 525 4134 
L 525 4666 
z
" transform="scale(0.015625)"/>
      <path id="DejaVuSans-7c" d="M 1344 4891 
L 1344 -1509 
L 813 -1509 
L 813 4891 
L 1344 4891 
z
" transform="scale(0.015625)"/>
      <path id="DejaVuSans-34" d="M 2419 4116 
L 825 1625 
L 2419 1625 
L 2419 4116 
z
M 2253 4666 
L 3047 4666 
L 3047 1625 
L 3713 1625 
L 3713 1100 
L 3047 1100 
L 3047 0 
L 2419 0 
L 2419 1100 
L 313 1100 
L 313 1709 
L 2253 4666 
z
" transform="scale(0.015625)"/>
     </defs>
     <use xlink:href="#DejaVuSans-54"/>
     <use xlink:href="#DejaVuSans-6f" transform="translate(44.083984 0)"/>
     <use xlink:href="#DejaVuSans-70" transform="translate(105.265625 0)"/>
     <use xlink:href="#DejaVuSans-6c" transform="translate(168.742188 0)"/>
     <use xlink:href="#DejaVuSans-61" transform="translate(196.525391 0)"/>
     <use xlink:href="#DejaVuSans-6d" transform="translate(257.804688 0)"/>
     <use xlink:href="#DejaVuSans-20" transform="translate(355.216797 0)"/>
     <use xlink:href="#DejaVuSans-6e" transform="translate(387.003906 0)"/>
     <use xlink:href="#DejaVuSans-6f" transform="translate(450.382812 0)"/>
     <use xlink:href="#DejaVuSans-64" transform="translate(511.564453 0)"/>
     <use xlink:href="#DejaVuSans-65" transform="translate(575.041016 0)"/>
     <use xlink:href="#DejaVuSans-3a" transform="translate(636.564453 0)"/>
     <use xlink:href="#DejaVuSans-20" transform="translate(670.255859 0)"/>
     <use xlink:href="#DejaVuSans-37" transform="translate(702.042969 0)"/>
     <use xlink:href="#DejaVuSans-20" transform="translate(765.666016 0)"/>
     <use xlink:href="#DejaVuSans-7c" transform="translate(797.453125 0)"/>
     <use xlink:href="#DejaVuSans-20" transform="translate(831.144531 0)"/>
     <use xlink:href="#DejaVuSans-54" transform="translate(862.931641 0)"/>
     <use xlink:href="#DejaVuSans-6f" transform="translate(907.015625 0)"/>
     <use xlink:href="#DejaVuSans-70" transform="translate(968.197266 0)"/>
     <use xlink:href="#DejaVuSans-6c" transform="translate(1031.673828 0)"/>
     <use xlink:href="#DejaVuSans-61" transform="translate(1059.457031 0)"/>
     <use xlink:href="#DejaVuSans-6d" transform="translate(1120.736328 0)"/>
     <use xlink:href="#DejaVuSans-20" transform="translate(1218.148438 0)"/>
     <use xlink:href="#DejaVuSans-69" transform="translate(1249.935547 0)"/>
     <use xlink:href="#DejaVuSans-6c" transform="translate(1277.71875 0)"/>
     <use xlink:href="#DejaVuSans-69" transform="translate(1305.501953 0)"/>
     <use xlink:href="#DejaVuSans-73" transform="translate(1333.285156 0)"/>
     <use xlink:href="#DejaVuSans-6b" transform="translate(1385.384766 0)"/>
     <use xlink:href="#DejaVuSans-69" transform="translate(1443.294922 0)"/>
     <use xlink:href="#DejaVuSans-3a" transform="translate(1471.078125 0)"/>
     <use xlink:href="#DejaVuSans-20" transform="translate(1504.769531 0)"/>
     <use xlink:href="#DejaVuSans-34" transform="translate(1536.556641 0)"/>
    </g>
   </g>
  </g>
 </g>
 <defs>
  <clipPath id="pf455faa897">
   <rect x="18" y="61.273125" width="1004.4" height="665.28"/>
  </clipPath>
 </defs>
</svg>
